<svg width="35" height="35" viewBox="0 0 35 35" fill="none" xmlns="http://www.w3.org/2000/svg">
<g clip-path="url(#clip0)">
<path d="M16.4896 17.6124C16.2223 17.8794 16.2223 18.3131 16.4896 18.5809C16.7569 18.8487 17.1895 18.8487 17.4562 18.5809C17.7235 18.3131 17.7235 17.8794 17.4562 17.6124C17.1895 17.3445 16.7569 17.3445 16.4896 17.6124Z" fill="#1157A7"/>
<path d="M27.3593 2.03893C26.1862 2.94887 25.8666 3.41789 21.7063 7.54327L19.2122 7.13632L20.3567 5.98959C21.1583 5.18641 21.1586 3.88691 20.3567 3.08372C19.5554 2.2808 18.2576 2.28053 17.4562 3.08372L14.2236 6.3227L2.9181 4.47846C2.18751 4.35967 1.44009 4.60181 0.917251 5.12567C-0.0881136 6.133 0.0483383 7.79958 1.19523 8.63113L12.4615 16.8059L10.3522 18.9195C9.62935 19.6438 8.86858 20.6399 8.08672 21.8838L2.83265 20.3357C2.0572 20.1075 1.2198 20.3213 0.647018 20.8941C-0.328173 21.8712 -0.180773 23.4939 0.951965 24.2799L5.25915 27.2674C4.50933 28.9254 4.05351 30.1243 4.03241 30.1797C3.93682 30.4317 3.99797 30.7167 4.18809 30.9072C4.37929 31.0988 4.66394 31.1584 4.91414 31.0632C4.96942 31.0423 6.16598 30.5853 7.82076 29.834L10.8027 34.1499C11.5885 35.2867 13.2081 35.4307 14.1822 34.4547C14.7536 33.8813 14.967 33.0422 14.739 32.2653L13.1942 27.0012C14.4364 26.2173 15.43 25.455 16.1526 24.7313L18.2621 22.6176L26.4207 33.9059C27.2519 35.0569 28.9153 35.1907 29.9196 34.1844C30.4421 33.6608 30.6838 32.9114 30.5655 32.1791L28.7249 20.8523L31.9573 17.6136C32.7589 16.8104 32.7589 15.5101 31.9573 14.7072C31.1559 13.904 29.8589 13.904 29.0573 14.7072L27.9126 15.8539L27.5067 13.355C31.6283 9.18229 32.0889 8.86952 32.9976 7.69416C32.9987 7.69283 33 7.69122 33.0011 7.68962C35.1095 4.95176 35.603 2.18662 34.2281 0.808463C32.8529 -0.568624 30.0929 -0.0747245 27.3593 2.03893ZM18.4229 4.05252C18.6899 3.7847 19.1228 3.7847 19.3901 4.05252C19.6574 4.32034 19.6571 4.75297 19.3901 5.02079L17.5492 6.86502L15.8864 6.59373L18.4229 4.05252ZM1.99685 7.52133C1.52902 7.18234 1.47534 6.50356 1.88416 6.09421C2.09699 5.8807 2.40193 5.78197 2.69887 5.8304L20.5151 8.73681L13.4407 15.8248L1.99685 7.52133ZM1.61366 21.8631C1.83209 21.6446 2.15146 21.5627 2.44706 21.6499L7.3612 23.0979C6.85865 23.9797 6.35156 24.9539 5.84581 26.0083L1.73036 23.1538C1.29857 22.8542 1.24196 22.2353 1.61366 21.8631ZM13.215 33.4867C12.8465 33.8559 12.2281 33.8061 11.9266 33.37L9.07766 29.2462C10.1308 28.739 11.1033 28.2306 11.9824 27.7281L13.4273 32.6516C13.5144 32.9481 13.4329 33.2681 13.215 33.4867ZM30.0242 15.6758C30.2913 15.4082 30.7233 15.4079 30.9906 15.6758C31.2579 15.9436 31.2576 16.377 30.9906 16.6448L28.4541 19.186L28.1836 17.52L30.0242 15.6758ZM29.2159 32.3988C29.2643 32.6971 29.1657 33.0027 28.9529 33.2159C28.5462 33.6234 27.8682 33.5736 27.5283 33.1027L19.2411 21.6368L26.3155 14.5486L29.2159 32.3988ZM15.186 23.7625C14.4337 24.5165 13.3328 25.3303 11.9138 26.182C10.0691 27.2888 7.88618 28.3371 5.91711 29.1751C6.77614 27.1486 7.84212 24.9261 8.97058 23.0567C9.79597 21.6884 10.5861 20.6222 11.3191 19.8881C28.0175 3.19716 27.0282 4.05814 28.0415 3.24612C29.1657 3.17415 30.1553 3.50859 30.8443 4.19887C31.5332 4.88916 31.8673 5.88097 31.7954 7.00709C30.9831 8.02486 31.8323 7.04321 15.186 23.7625ZM32.9653 5.20727C32.7469 4.45224 32.3589 3.77909 31.8112 3.23034C31.2635 2.68186 30.5917 2.29284 29.8384 2.07398C30.8277 1.57125 32.4937 1.00832 33.2614 1.777C33.8676 2.38461 33.717 3.7221 32.9653 5.20727Z" fill="#1157A7"/>
<path d="M20.3567 13.7377L18.4234 15.6745C18.1564 15.942 18.1564 16.3757 18.4234 16.6433C18.6904 16.9108 19.123 16.9105 19.3903 16.6433L21.3234 14.7062C21.5904 14.4389 21.5904 14.0052 21.3234 13.7377C21.0563 13.4701 20.6237 13.4701 20.3567 13.7377Z" fill="#1157A7"/>
<path d="M24.2238 9.86302L22.2897 11.8006C22.023 12.0682 22.023 12.5019 22.2897 12.7694C22.557 13.0367 22.9896 13.0367 23.2566 12.7694L25.1905 10.8318C25.4575 10.5643 25.4575 10.1306 25.1905 9.86302C24.9234 9.59547 24.4909 9.59547 24.2238 9.86302Z" fill="#1157A7"/>
</g>
<defs>
<clipPath id="clip0">
<rect width="35" height="35" fill="white"/>
</clipPath>
</defs>
</svg>
